# xmcd
#
# Track frame offsets:
#	150
#	14681
#	28525
#	43175
#	53500
#	64778
#	73847
#	99704
#
# Disc length: 3976 seconds
#
# Revision: 1
# Processed by: cddbd v1.5.2PL0 Copyright (c) Steve Scherf et al.
# Submitted via: audiograbber 1.83.01
#
DISCID=6d0f8608
DTITLE=Sunny Side - Little Georgia Rose
DYEAR=1900
DGENRE=
TTITLE0=Bill Monroe - Little Georgia Rose
TTITLE1=Traditional - Black Mountain Rag
TTITLE2=Bill Monroe - Kentucky Waltz
TTITLE3=Bill Monroe - Good Bye, Old Pall
TTITLE4=Bill Monroe - I´m On My Way To The Old Home
TTITLE5=Bill Monroe - Used To Be
TTITLE6=L.Luallen, R. Tillman, G. William - Polka On The Banjo
TTITLE7=Sunny Side - Data Track
EXTD=
EXTT0=
EXTT1=
EXTT2=
EXTT3=
EXTT4=
EXTT5=
EXTT6=
EXTT7=
PLAYORDER=
